<mxfile host="65bd71144e">
    <diagram id="qtrwpjeU9aI3cUA3aUsC" name="Entry">
        <mxGraphModel dx="5970" dy="3225" grid="1" gridSize="10" guides="1" tooltips="1" connect="1" arrows="1" fold="1" page="0" pageScale="1" pageWidth="827" pageHeight="1169" math="0" shadow="0">
            <root>
                <mxCell id="0"/>
                <mxCell id="1" parent="0"/>
                <mxCell id="2" value="ENTRY" style="shape=umlLifeline;perimeter=lifelinePerimeter;whiteSpace=wrap;html=1;container=1;dropTarget=0;collapsible=0;recursiveResize=0;outlineConnect=0;portConstraint=eastwest;newEdgeStyle={&quot;curved&quot;:0,&quot;rounded&quot;:0};" vertex="1" parent="1">
                    <mxGeometry x="70" y="280" width="100" height="5290" as="geometry"/>
                </mxCell>
                <mxCell id="3" value="" style="html=1;points=[[0,0,0,0,5],[0,1,0,0,-5],[1,0,0,0,5],[1,1,0,0,-5]];perimeter=orthogonalPerimeter;outlineConnect=0;targetShapes=umlLifeline;portConstraint=eastwest;newEdgeStyle={&quot;curved&quot;:0,&quot;rounded&quot;:0};" vertex="1" parent="2">
                    <mxGeometry x="45" y="80" width="10" height="5160" as="geometry"/>
                </mxCell>
                <mxCell id="153" value="" style="shape=umlDestroy;whiteSpace=wrap;html=1;strokeWidth=3;targetShapes=umlLifeline;" vertex="1" parent="2">
                    <mxGeometry x="35" y="5260" width="30" height="30" as="geometry"/>
                </mxCell>
                <mxCell id="4" value="main()" style="html=1;verticalAlign=bottom;startArrow=oval;startFill=1;endArrow=block;startSize=8;curved=0;rounded=0;" edge="1" parent="1" target="2">
                    <mxGeometry width="60" relative="1" as="geometry">
                        <mxPoint y="360" as="sourcePoint"/>
                        <mxPoint x="60" y="360" as="targetPoint"/>
                    </mxGeometry>
                </mxCell>
                <mxCell id="5" value="ContainerSet&lt;div&gt;module&lt;/div&gt;" style="shape=umlLifeline;perimeter=lifelinePerimeter;whiteSpace=wrap;html=1;container=1;dropTarget=0;collapsible=0;recursiveResize=0;outlineConnect=0;portConstraint=eastwest;newEdgeStyle={&quot;curved&quot;:0,&quot;rounded&quot;:0};" vertex="1" parent="1">
                    <mxGeometry x="270" y="360" width="100" height="5210" as="geometry"/>
                </mxCell>
                <mxCell id="25" value="" style="html=1;points=[[0,0,0,0,5],[0,1,0,0,-5],[1,0,0,0,5],[1,1,0,0,-5]];perimeter=orthogonalPerimeter;outlineConnect=0;targetShapes=umlLifeline;portConstraint=eastwest;newEdgeStyle={&quot;curved&quot;:0,&quot;rounded&quot;:0};" vertex="1" parent="5">
                    <mxGeometry x="45" y="80" width="10" height="80" as="geometry"/>
                </mxCell>
                <mxCell id="27" value="" style="html=1;points=[[0,0,0,0,5],[0,1,0,0,-5],[1,0,0,0,5],[1,1,0,0,-5]];perimeter=orthogonalPerimeter;outlineConnect=0;targetShapes=umlLifeline;portConstraint=eastwest;newEdgeStyle={&quot;curved&quot;:0,&quot;rounded&quot;:0};" vertex="1" parent="5">
                    <mxGeometry x="45" y="760" width="10" height="80" as="geometry"/>
                </mxCell>
                <mxCell id="46" value="" style="html=1;points=[[0,0,0,0,5],[0,1,0,0,-5],[1,0,0,0,5],[1,1,0,0,-5]];perimeter=orthogonalPerimeter;outlineConnect=0;targetShapes=umlLifeline;portConstraint=eastwest;newEdgeStyle={&quot;curved&quot;:0,&quot;rounded&quot;:0};" vertex="1" parent="5">
                    <mxGeometry x="45" y="1440" width="10" height="80" as="geometry"/>
                </mxCell>
                <mxCell id="95" value="" style="html=1;points=[[0,0,0,0,5],[0,1,0,0,-5],[1,0,0,0,5],[1,1,0,0,-5]];perimeter=orthogonalPerimeter;outlineConnect=0;targetShapes=umlLifeline;portConstraint=eastwest;newEdgeStyle={&quot;curved&quot;:0,&quot;rounded&quot;:0};" vertex="1" parent="5">
                    <mxGeometry x="46" y="4160" width="10" height="80" as="geometry"/>
                </mxCell>
                <mxCell id="119" value="" style="html=1;points=[[0,0,0,0,5],[0,1,0,0,-5],[1,0,0,0,5],[1,1,0,0,-5]];perimeter=orthogonalPerimeter;outlineConnect=0;targetShapes=umlLifeline;portConstraint=eastwest;newEdgeStyle={&quot;curved&quot;:0,&quot;rounded&quot;:0};" vertex="1" parent="5">
                    <mxGeometry x="43.5" y="2440" width="10" height="80" as="geometry"/>
                </mxCell>
                <mxCell id="154" value="" style="shape=umlDestroy;whiteSpace=wrap;html=1;strokeWidth=3;targetShapes=umlLifeline;" vertex="1" parent="5">
                    <mxGeometry x="34" y="5180" width="30" height="30" as="geometry"/>
                </mxCell>
                <mxCell id="6" value="New" style="html=1;verticalAlign=bottom;endArrow=block;curved=0;rounded=0;" edge="1" parent="1">
                    <mxGeometry width="80" relative="1" as="geometry">
                        <mxPoint x="119.70000000000005" y="380" as="sourcePoint"/>
                        <mxPoint x="270" y="380" as="targetPoint"/>
                    </mxGeometry>
                </mxCell>
                <mxCell id="7" value="WindowContextFactory&lt;div&gt;&lt;span style=&quot;background-color: transparent;&quot;&gt;module&lt;/span&gt;&lt;/div&gt;" style="shape=umlLifeline;perimeter=lifelinePerimeter;whiteSpace=wrap;html=1;container=1;dropTarget=0;collapsible=0;recursiveResize=0;outlineConnect=0;portConstraint=eastwest;newEdgeStyle={&quot;curved&quot;:0,&quot;rounded&quot;:0};" vertex="1" parent="1">
                    <mxGeometry x="455" y="560" width="130" height="210" as="geometry"/>
                </mxCell>
                <mxCell id="9" value="" style="html=1;points=[[0,0,0,0,5],[0,1,0,0,-5],[1,0,0,0,5],[1,1,0,0,-5]];perimeter=orthogonalPerimeter;outlineConnect=0;targetShapes=umlLifeline;portConstraint=eastwest;newEdgeStyle={&quot;curved&quot;:0,&quot;rounded&quot;:0};" vertex="1" parent="7">
                    <mxGeometry x="60" y="80" width="10" height="80" as="geometry"/>
                </mxCell>
                <mxCell id="12" value="" style="shape=umlDestroy;whiteSpace=wrap;html=1;strokeWidth=3;targetShapes=umlLifeline;" vertex="1" parent="7">
                    <mxGeometry x="50" y="180" width="30" height="30" as="geometry"/>
                </mxCell>
                <mxCell id="8" value="New" style="html=1;verticalAlign=bottom;endArrow=block;curved=0;rounded=0;" edge="1" parent="1">
                    <mxGeometry width="80" relative="1" as="geometry">
                        <mxPoint x="119.70000000000005" y="580" as="sourcePoint"/>
                        <mxPoint x="450" y="580" as="targetPoint"/>
                    </mxGeometry>
                </mxCell>
                <mxCell id="10" value="Create&lt;div&gt;(IDesc desc)&lt;/div&gt;" style="html=1;verticalAlign=bottom;endArrow=block;curved=0;rounded=0;" edge="1" parent="1">
                    <mxGeometry width="80" relative="1" as="geometry">
                        <mxPoint x="119.70000000000005" y="640" as="sourcePoint"/>
                        <mxPoint x="519.5" y="640" as="targetPoint"/>
                    </mxGeometry>
                </mxCell>
                <mxCell id="11" value="IWindowContext" style="html=1;verticalAlign=bottom;endArrow=open;dashed=1;endSize=8;curved=0;rounded=0;" edge="1" parent="1">
                    <mxGeometry relative="1" as="geometry">
                        <mxPoint x="519.5" y="720" as="sourcePoint"/>
                        <mxPoint x="119.94444444444434" y="720" as="targetPoint"/>
                    </mxGeometry>
                </mxCell>
                <mxCell id="13" value="WindowContextContainer&lt;div&gt;module&lt;/div&gt;" style="shape=umlLifeline;perimeter=lifelinePerimeter;whiteSpace=wrap;html=1;container=1;dropTarget=0;collapsible=0;recursiveResize=0;outlineConnect=0;portConstraint=eastwest;newEdgeStyle={&quot;curved&quot;:0,&quot;rounded&quot;:0};" vertex="1" parent="1">
                    <mxGeometry x="842.5" y="800" width="155" height="370" as="geometry"/>
                </mxCell>
                <mxCell id="15" value="" style="html=1;points=[[0,0,0,0,5],[0,1,0,0,-5],[1,0,0,0,5],[1,1,0,0,-5]];perimeter=orthogonalPerimeter;outlineConnect=0;targetShapes=umlLifeline;portConstraint=eastwest;newEdgeStyle={&quot;curved&quot;:0,&quot;rounded&quot;:0};" vertex="1" parent="13">
                    <mxGeometry x="72.5" y="80" width="10" height="80" as="geometry"/>
                </mxCell>
                <mxCell id="17" value="" style="html=1;points=[[0,0,0,0,5],[0,1,0,0,-5],[1,0,0,0,5],[1,1,0,0,-5]];perimeter=orthogonalPerimeter;outlineConnect=0;targetShapes=umlLifeline;portConstraint=eastwest;newEdgeStyle={&quot;curved&quot;:0,&quot;rounded&quot;:0};" vertex="1" parent="13">
                    <mxGeometry x="72.5" y="200" width="10" height="80" as="geometry"/>
                </mxCell>
                <mxCell id="49" value="" style="shape=umlDestroy;whiteSpace=wrap;html=1;strokeWidth=3;targetShapes=umlLifeline;" vertex="1" parent="13">
                    <mxGeometry x="62.5" y="340" width="30" height="30" as="geometry"/>
                </mxCell>
                <mxCell id="14" value="New" style="html=1;verticalAlign=bottom;endArrow=block;curved=0;rounded=0;" edge="1" parent="1">
                    <mxGeometry width="80" relative="1" as="geometry">
                        <mxPoint x="119.66666666666652" y="820" as="sourcePoint"/>
                        <mxPoint x="840" y="820" as="targetPoint"/>
                    </mxGeometry>
                </mxCell>
                <mxCell id="16" value="Create&lt;div&gt;(uint size)&lt;/div&gt;" style="html=1;verticalAlign=bottom;endArrow=block;curved=0;rounded=0;" edge="1" parent="1">
                    <mxGeometry width="80" relative="1" as="geometry">
                        <mxPoint x="119.66666666666652" y="880" as="sourcePoint"/>
                        <mxPoint x="919.5" y="880" as="targetPoint"/>
                    </mxGeometry>
                </mxCell>
                <mxCell id="18" value="Set&lt;div&gt;(IWindowContext windowContext)&lt;/div&gt;" style="html=1;verticalAlign=bottom;endArrow=block;curved=0;rounded=0;" edge="1" parent="1">
                    <mxGeometry width="80" relative="1" as="geometry">
                        <mxPoint x="119.92857142857133" y="1000" as="sourcePoint"/>
                        <mxPoint x="919.5" y="1000" as="targetPoint"/>
                    </mxGeometry>
                </mxCell>
                <mxCell id="19" value="WindowContext&lt;div&gt;module&lt;/div&gt;" style="shape=umlLifeline;perimeter=lifelinePerimeter;whiteSpace=wrap;html=1;container=1;dropTarget=0;collapsible=0;recursiveResize=0;outlineConnect=0;portConstraint=eastwest;newEdgeStyle={&quot;curved&quot;:0,&quot;rounded&quot;:0};" vertex="1" parent="1">
                    <mxGeometry x="670" y="640" width="100" height="400" as="geometry"/>
                </mxCell>
                <mxCell id="20" value="New" style="html=1;verticalAlign=bottom;endArrow=block;curved=0;rounded=0;" edge="1" parent="1">
                    <mxGeometry width="80" relative="1" as="geometry">
                        <mxPoint x="519.5" y="660" as="sourcePoint"/>
                        <mxPoint x="670" y="660" as="targetPoint"/>
                    </mxGeometry>
                </mxCell>
                <mxCell id="26" value="Create&lt;div&gt;(uint size)&lt;/div&gt;" style="html=1;verticalAlign=bottom;endArrow=block;curved=0;rounded=0;" edge="1" parent="1">
                    <mxGeometry width="80" relative="1" as="geometry">
                        <mxPoint x="118.96153846153857" y="440.0000000000002" as="sourcePoint"/>
                        <mxPoint x="319.5" y="440.0000000000002" as="targetPoint"/>
                    </mxGeometry>
                </mxCell>
                <mxCell id="28" value="Set&lt;div&gt;(int index, IContainer cont)&lt;/div&gt;" style="html=1;verticalAlign=bottom;endArrow=block;curved=0;rounded=0;" edge="1" parent="1">
                    <mxGeometry width="80" relative="1" as="geometry">
                        <mxPoint x="119.63043478260875" y="1120" as="sourcePoint"/>
                        <mxPoint x="319.5" y="1120" as="targetPoint"/>
                    </mxGeometry>
                </mxCell>
                <mxCell id="30" value="SceneContextFactory&lt;div&gt;&lt;span style=&quot;background-color: transparent;&quot;&gt;module&lt;/span&gt;&lt;/div&gt;" style="shape=umlLifeline;perimeter=lifelinePerimeter;whiteSpace=wrap;html=1;container=1;dropTarget=0;collapsible=0;recursiveResize=0;outlineConnect=0;portConstraint=eastwest;newEdgeStyle={&quot;curved&quot;:0,&quot;rounded&quot;:0};" vertex="1" parent="1">
                    <mxGeometry x="452.5" y="1240" width="135" height="210" as="geometry"/>
                </mxCell>
                <mxCell id="31" value="" style="html=1;points=[[0,0,0,0,5],[0,1,0,0,-5],[1,0,0,0,5],[1,1,0,0,-5]];perimeter=orthogonalPerimeter;outlineConnect=0;targetShapes=umlLifeline;portConstraint=eastwest;newEdgeStyle={&quot;curved&quot;:0,&quot;rounded&quot;:0};" vertex="1" parent="30">
                    <mxGeometry x="62.5" y="80" width="10" height="80" as="geometry"/>
                </mxCell>
                <mxCell id="32" value="" style="shape=umlDestroy;whiteSpace=wrap;html=1;strokeWidth=3;targetShapes=umlLifeline;" vertex="1" parent="30">
                    <mxGeometry x="52.5" y="180" width="30" height="30" as="geometry"/>
                </mxCell>
                <mxCell id="33" value="New" style="html=1;verticalAlign=bottom;endArrow=block;curved=0;rounded=0;" edge="1" parent="1">
                    <mxGeometry width="80" relative="1" as="geometry">
                        <mxPoint x="119.70000000000005" y="1260" as="sourcePoint"/>
                        <mxPoint x="450" y="1260" as="targetPoint"/>
                    </mxGeometry>
                </mxCell>
                <mxCell id="34" value="Create&lt;div&gt;(IDesc desc)&lt;/div&gt;" style="html=1;verticalAlign=bottom;endArrow=block;curved=0;rounded=0;" edge="1" parent="1">
                    <mxGeometry width="80" relative="1" as="geometry">
                        <mxPoint x="119.70000000000005" y="1320" as="sourcePoint"/>
                        <mxPoint x="519.5" y="1320" as="targetPoint"/>
                    </mxGeometry>
                </mxCell>
                <mxCell id="35" value="ISceneContext" style="html=1;verticalAlign=bottom;endArrow=open;dashed=1;endSize=8;curved=0;rounded=0;" edge="1" parent="1">
                    <mxGeometry relative="1" as="geometry">
                        <mxPoint x="519.5" y="1400" as="sourcePoint"/>
                        <mxPoint x="119.94444444444434" y="1400" as="targetPoint"/>
                    </mxGeometry>
                </mxCell>
                <mxCell id="36" value="SceneContextContainer&lt;div&gt;module&lt;/div&gt;" style="shape=umlLifeline;perimeter=lifelinePerimeter;whiteSpace=wrap;html=1;container=1;dropTarget=0;collapsible=0;recursiveResize=0;outlineConnect=0;portConstraint=eastwest;newEdgeStyle={&quot;curved&quot;:0,&quot;rounded&quot;:0};" vertex="1" parent="1">
                    <mxGeometry x="847.5" y="1480" width="145" height="360" as="geometry"/>
                </mxCell>
                <mxCell id="37" value="" style="html=1;points=[[0,0,0,0,5],[0,1,0,0,-5],[1,0,0,0,5],[1,1,0,0,-5]];perimeter=orthogonalPerimeter;outlineConnect=0;targetShapes=umlLifeline;portConstraint=eastwest;newEdgeStyle={&quot;curved&quot;:0,&quot;rounded&quot;:0};" vertex="1" parent="36">
                    <mxGeometry x="67.5" y="80" width="10" height="80" as="geometry"/>
                </mxCell>
                <mxCell id="38" value="" style="html=1;points=[[0,0,0,0,5],[0,1,0,0,-5],[1,0,0,0,5],[1,1,0,0,-5]];perimeter=orthogonalPerimeter;outlineConnect=0;targetShapes=umlLifeline;portConstraint=eastwest;newEdgeStyle={&quot;curved&quot;:0,&quot;rounded&quot;:0};" vertex="1" parent="36">
                    <mxGeometry x="67.5" y="200" width="10" height="80" as="geometry"/>
                </mxCell>
                <mxCell id="39" value="" style="shape=umlDestroy;whiteSpace=wrap;html=1;strokeWidth=3;targetShapes=umlLifeline;" vertex="1" parent="36">
                    <mxGeometry x="57.5" y="340" width="30" height="30" as="geometry"/>
                </mxCell>
                <mxCell id="40" value="New" style="html=1;verticalAlign=bottom;endArrow=block;curved=0;rounded=0;" edge="1" parent="1">
                    <mxGeometry width="80" relative="1" as="geometry">
                        <mxPoint x="117.16666666666652" y="1500" as="sourcePoint"/>
                        <mxPoint x="847.5" y="1500" as="targetPoint"/>
                    </mxGeometry>
                </mxCell>
                <mxCell id="41" value="Create&lt;div&gt;(uint size)&lt;/div&gt;" style="html=1;verticalAlign=bottom;endArrow=block;curved=0;rounded=0;" edge="1" parent="1">
                    <mxGeometry width="80" relative="1" as="geometry">
                        <mxPoint x="119.66666666666652" y="1560" as="sourcePoint"/>
                        <mxPoint x="919.5" y="1560" as="targetPoint"/>
                    </mxGeometry>
                </mxCell>
                <mxCell id="42" value="Set&lt;div&gt;(ISceneContext scene)&lt;/div&gt;" style="html=1;verticalAlign=bottom;endArrow=block;curved=0;rounded=0;" edge="1" parent="1">
                    <mxGeometry width="80" relative="1" as="geometry">
                        <mxPoint x="119.92857142857133" y="1680" as="sourcePoint"/>
                        <mxPoint x="919.5" y="1680" as="targetPoint"/>
                    </mxGeometry>
                </mxCell>
                <mxCell id="43" value="SceneContext&lt;div&gt;module&lt;/div&gt;" style="shape=umlLifeline;perimeter=lifelinePerimeter;whiteSpace=wrap;html=1;container=1;dropTarget=0;collapsible=0;recursiveResize=0;outlineConnect=0;portConstraint=eastwest;newEdgeStyle={&quot;curved&quot;:0,&quot;rounded&quot;:0};" vertex="1" parent="1">
                    <mxGeometry x="670" y="1320" width="100" height="400" as="geometry"/>
                </mxCell>
                <mxCell id="44" value="" style="shape=umlDestroy;whiteSpace=wrap;html=1;strokeWidth=3;targetShapes=umlLifeline;" vertex="1" parent="43">
                    <mxGeometry x="35" y="380" width="30" height="30" as="geometry"/>
                </mxCell>
                <mxCell id="45" value="New" style="html=1;verticalAlign=bottom;endArrow=block;curved=0;rounded=0;" edge="1" parent="1">
                    <mxGeometry width="80" relative="1" as="geometry">
                        <mxPoint x="519.5" y="1340" as="sourcePoint"/>
                        <mxPoint x="670" y="1340" as="targetPoint"/>
                    </mxGeometry>
                </mxCell>
                <mxCell id="47" value="Set&lt;div&gt;(int index, IContainer cont)&lt;/div&gt;" style="html=1;verticalAlign=bottom;endArrow=block;curved=0;rounded=0;" edge="1" parent="1">
                    <mxGeometry width="80" relative="1" as="geometry">
                        <mxPoint x="118.5" y="1800" as="sourcePoint"/>
                        <mxPoint x="319.5" y="1800" as="targetPoint"/>
                    </mxGeometry>
                </mxCell>
                <mxCell id="48" value="move" style="html=1;verticalAlign=bottom;endArrow=open;dashed=1;endSize=8;curved=0;rounded=0;" edge="1" parent="1">
                    <mxGeometry relative="1" as="geometry">
                        <mxPoint x="919.5" y="1160" as="sourcePoint"/>
                        <mxPoint x="319.81034482758605" y="1160" as="targetPoint"/>
                    </mxGeometry>
                </mxCell>
                <mxCell id="50" value="move" style="html=1;verticalAlign=bottom;endArrow=open;dashed=1;endSize=8;curved=0;rounded=0;" edge="1" parent="1">
                    <mxGeometry relative="1" as="geometry">
                        <mxPoint x="919.5000000000002" y="1840" as="sourcePoint"/>
                        <mxPoint x="319.89393939393926" y="1840" as="targetPoint"/>
                    </mxGeometry>
                </mxCell>
                <mxCell id="51" value="move" style="html=1;verticalAlign=bottom;endArrow=open;dashed=1;endSize=8;curved=0;rounded=0;" edge="1" parent="1">
                    <mxGeometry relative="1" as="geometry">
                        <mxPoint x="719.8939393939395" y="1719.9999999999998" as="sourcePoint"/>
                        <mxPoint x="919.5000000000002" y="1719.9999999999998" as="targetPoint"/>
                    </mxGeometry>
                </mxCell>
                <mxCell id="22" value="" style="shape=umlDestroy;whiteSpace=wrap;html=1;strokeWidth=3;targetShapes=umlLifeline;" vertex="1" parent="1">
                    <mxGeometry x="705" y="1020" width="30" height="30" as="geometry"/>
                </mxCell>
                <mxCell id="53" value="move" style="html=1;verticalAlign=bottom;endArrow=open;dashed=1;endSize=8;curved=0;rounded=0;" edge="1" parent="1">
                    <mxGeometry relative="1" as="geometry">
                        <mxPoint x="719.785714285714" y="1040" as="sourcePoint"/>
                        <mxPoint x="919.5" y="1040" as="targetPoint"/>
                    </mxGeometry>
                </mxCell>
                <mxCell id="55" value="" style="html=1;points=[[0,0,0,0,5],[0,1,0,0,-5],[1,0,0,0,5],[1,1,0,0,-5]];perimeter=orthogonalPerimeter;outlineConnect=0;targetShapes=umlLifeline;portConstraint=eastwest;newEdgeStyle={&quot;curved&quot;:0,&quot;rounded&quot;:0};" vertex="1" parent="1">
                    <mxGeometry x="315" y="2480" width="10" height="80" as="geometry"/>
                </mxCell>
                <mxCell id="56" value="MonitorFactory&lt;div&gt;&lt;span style=&quot;background-color: transparent;&quot;&gt;module&lt;/span&gt;&lt;/div&gt;" style="shape=umlLifeline;perimeter=lifelinePerimeter;whiteSpace=wrap;html=1;container=1;dropTarget=0;collapsible=0;recursiveResize=0;outlineConnect=0;portConstraint=eastwest;newEdgeStyle={&quot;curved&quot;:0,&quot;rounded&quot;:0};" vertex="1" parent="1">
                    <mxGeometry x="470" y="1920" width="100" height="210" as="geometry"/>
                </mxCell>
                <mxCell id="57" value="" style="html=1;points=[[0,0,0,0,5],[0,1,0,0,-5],[1,0,0,0,5],[1,1,0,0,-5]];perimeter=orthogonalPerimeter;outlineConnect=0;targetShapes=umlLifeline;portConstraint=eastwest;newEdgeStyle={&quot;curved&quot;:0,&quot;rounded&quot;:0};" vertex="1" parent="56">
                    <mxGeometry x="45" y="80" width="10" height="80" as="geometry"/>
                </mxCell>
                <mxCell id="58" value="" style="shape=umlDestroy;whiteSpace=wrap;html=1;strokeWidth=3;targetShapes=umlLifeline;" vertex="1" parent="56">
                    <mxGeometry x="35" y="180" width="30" height="30" as="geometry"/>
                </mxCell>
                <mxCell id="59" value="New" style="html=1;verticalAlign=bottom;endArrow=block;curved=0;rounded=0;" edge="1" parent="1">
                    <mxGeometry width="80" relative="1" as="geometry">
                        <mxPoint x="119.70000000000005" y="1940" as="sourcePoint"/>
                        <mxPoint x="470" y="1940" as="targetPoint"/>
                    </mxGeometry>
                </mxCell>
                <mxCell id="60" value="Create&lt;div&gt;(IDesc desc)&lt;/div&gt;" style="html=1;verticalAlign=bottom;endArrow=block;curved=0;rounded=0;" edge="1" parent="1">
                    <mxGeometry width="80" relative="1" as="geometry">
                        <mxPoint x="119.70000000000005" y="2000" as="sourcePoint"/>
                        <mxPoint x="519.5" y="2000" as="targetPoint"/>
                    </mxGeometry>
                </mxCell>
                <mxCell id="61" value="IMonitor" style="html=1;verticalAlign=bottom;endArrow=open;dashed=1;endSize=8;curved=0;rounded=0;" edge="1" parent="1">
                    <mxGeometry relative="1" as="geometry">
                        <mxPoint x="519.5" y="2080" as="sourcePoint"/>
                        <mxPoint x="119.94444444444434" y="2080" as="targetPoint"/>
                    </mxGeometry>
                </mxCell>
                <mxCell id="62" value="MonitorContainer&lt;div&gt;module&lt;/div&gt;" style="shape=umlLifeline;perimeter=lifelinePerimeter;whiteSpace=wrap;html=1;container=1;dropTarget=0;collapsible=0;recursiveResize=0;outlineConnect=0;portConstraint=eastwest;newEdgeStyle={&quot;curved&quot;:0,&quot;rounded&quot;:0};" vertex="1" parent="1">
                    <mxGeometry x="870" y="2160" width="100" height="360" as="geometry"/>
                </mxCell>
                <mxCell id="63" value="" style="html=1;points=[[0,0,0,0,5],[0,1,0,0,-5],[1,0,0,0,5],[1,1,0,0,-5]];perimeter=orthogonalPerimeter;outlineConnect=0;targetShapes=umlLifeline;portConstraint=eastwest;newEdgeStyle={&quot;curved&quot;:0,&quot;rounded&quot;:0};" vertex="1" parent="62">
                    <mxGeometry x="45" y="80" width="10" height="80" as="geometry"/>
                </mxCell>
                <mxCell id="64" value="" style="html=1;points=[[0,0,0,0,5],[0,1,0,0,-5],[1,0,0,0,5],[1,1,0,0,-5]];perimeter=orthogonalPerimeter;outlineConnect=0;targetShapes=umlLifeline;portConstraint=eastwest;newEdgeStyle={&quot;curved&quot;:0,&quot;rounded&quot;:0};" vertex="1" parent="62">
                    <mxGeometry x="45" y="200" width="10" height="80" as="geometry"/>
                </mxCell>
                <mxCell id="65" value="" style="shape=umlDestroy;whiteSpace=wrap;html=1;strokeWidth=3;targetShapes=umlLifeline;" vertex="1" parent="62">
                    <mxGeometry x="35" y="340" width="30" height="30" as="geometry"/>
                </mxCell>
                <mxCell id="66" value="New" style="html=1;verticalAlign=bottom;endArrow=block;curved=0;rounded=0;" edge="1" parent="1">
                    <mxGeometry width="80" relative="1" as="geometry">
                        <mxPoint x="119.66666666666652" y="2180" as="sourcePoint"/>
                        <mxPoint x="870" y="2180" as="targetPoint"/>
                    </mxGeometry>
                </mxCell>
                <mxCell id="67" value="Create&lt;div&gt;(uint size)&lt;/div&gt;" style="html=1;verticalAlign=bottom;endArrow=block;curved=0;rounded=0;" edge="1" parent="1">
                    <mxGeometry width="80" relative="1" as="geometry">
                        <mxPoint x="119.66666666666652" y="2240" as="sourcePoint"/>
                        <mxPoint x="919.5" y="2240" as="targetPoint"/>
                    </mxGeometry>
                </mxCell>
                <mxCell id="68" value="Set&lt;div&gt;(IMonitor monitor)&lt;/div&gt;" style="html=1;verticalAlign=bottom;endArrow=block;curved=0;rounded=0;" edge="1" parent="1">
                    <mxGeometry width="80" relative="1" as="geometry">
                        <mxPoint x="119.92857142857133" y="2360" as="sourcePoint"/>
                        <mxPoint x="919.5" y="2360" as="targetPoint"/>
                    </mxGeometry>
                </mxCell>
                <mxCell id="69" value="Monitor&lt;div&gt;module&lt;/div&gt;" style="shape=umlLifeline;perimeter=lifelinePerimeter;whiteSpace=wrap;html=1;container=1;dropTarget=0;collapsible=0;recursiveResize=0;outlineConnect=0;portConstraint=eastwest;newEdgeStyle={&quot;curved&quot;:0,&quot;rounded&quot;:0};" vertex="1" parent="1">
                    <mxGeometry x="670" y="2000" width="100" height="400" as="geometry"/>
                </mxCell>
                <mxCell id="70" value="" style="shape=umlDestroy;whiteSpace=wrap;html=1;strokeWidth=3;targetShapes=umlLifeline;" vertex="1" parent="69">
                    <mxGeometry x="35" y="380" width="30" height="30" as="geometry"/>
                </mxCell>
                <mxCell id="71" value="New" style="html=1;verticalAlign=bottom;endArrow=block;curved=0;rounded=0;" edge="1" parent="1">
                    <mxGeometry width="80" relative="1" as="geometry">
                        <mxPoint x="519.5" y="2020" as="sourcePoint"/>
                        <mxPoint x="670" y="2020" as="targetPoint"/>
                    </mxGeometry>
                </mxCell>
                <mxCell id="72" value="Set&lt;div&gt;(int index, IContainer cont)&lt;/div&gt;" style="html=1;verticalAlign=bottom;endArrow=block;curved=0;rounded=0;" edge="1" parent="1">
                    <mxGeometry width="80" relative="1" as="geometry">
                        <mxPoint x="118.5" y="2480" as="sourcePoint"/>
                        <mxPoint x="319.5" y="2480" as="targetPoint"/>
                    </mxGeometry>
                </mxCell>
                <mxCell id="73" value="move" style="html=1;verticalAlign=bottom;endArrow=open;dashed=1;endSize=8;curved=0;rounded=0;" edge="1" parent="1">
                    <mxGeometry relative="1" as="geometry">
                        <mxPoint x="919.5000000000002" y="2520" as="sourcePoint"/>
                        <mxPoint x="319.89393939393926" y="2520" as="targetPoint"/>
                    </mxGeometry>
                </mxCell>
                <mxCell id="74" value="move" style="html=1;verticalAlign=bottom;endArrow=open;dashed=1;endSize=8;curved=0;rounded=0;" edge="1" parent="1">
                    <mxGeometry relative="1" as="geometry">
                        <mxPoint x="719.8939393939395" y="2400" as="sourcePoint"/>
                        <mxPoint x="919.5000000000002" y="2400" as="targetPoint"/>
                    </mxGeometry>
                </mxCell>
                <mxCell id="75" value="EventInstTable&lt;div&gt;module&lt;/div&gt;" style="shape=umlLifeline;perimeter=lifelinePerimeter;whiteSpace=wrap;html=1;container=1;dropTarget=0;collapsible=0;recursiveResize=0;outlineConnect=0;portConstraint=eastwest;newEdgeStyle={&quot;curved&quot;:0,&quot;rounded&quot;:0};" vertex="1" parent="1">
                    <mxGeometry x="470" y="3880" width="100" height="450" as="geometry"/>
                </mxCell>
                <mxCell id="77" value="" style="html=1;points=[[0,0,0,0,5],[0,1,0,0,-5],[1,0,0,0,5],[1,1,0,0,-5]];perimeter=orthogonalPerimeter;outlineConnect=0;targetShapes=umlLifeline;portConstraint=eastwest;newEdgeStyle={&quot;curved&quot;:0,&quot;rounded&quot;:0};" vertex="1" parent="75">
                    <mxGeometry x="45" y="80" width="10" height="80" as="geometry"/>
                </mxCell>
                <mxCell id="91" value="" style="shape=umlDestroy;whiteSpace=wrap;html=1;strokeWidth=3;targetShapes=umlLifeline;" vertex="1" parent="75">
                    <mxGeometry x="35" y="420" width="30" height="30" as="geometry"/>
                </mxCell>
                <mxCell id="76" value="New" style="html=1;verticalAlign=bottom;endArrow=block;curved=0;rounded=0;" edge="1" parent="1">
                    <mxGeometry width="80" relative="1" as="geometry">
                        <mxPoint x="119.73076923076928" y="3900" as="sourcePoint"/>
                        <mxPoint x="470" y="3900" as="targetPoint"/>
                    </mxGeometry>
                </mxCell>
                <mxCell id="78" value="Add&lt;div&gt;(Key, FuncPtr)&lt;/div&gt;" style="html=1;verticalAlign=bottom;endArrow=block;curved=0;rounded=0;" edge="1" parent="1">
                    <mxGeometry width="80" relative="1" as="geometry">
                        <mxPoint x="119.73076923076928" y="3960" as="sourcePoint"/>
                        <mxPoint x="519.4999999999998" y="3960" as="targetPoint"/>
                    </mxGeometry>
                </mxCell>
                <mxCell id="79" value="EventFuncTable&lt;div&gt;module&lt;/div&gt;" style="shape=umlLifeline;perimeter=lifelinePerimeter;whiteSpace=wrap;html=1;container=1;dropTarget=0;collapsible=0;recursiveResize=0;outlineConnect=0;portConstraint=eastwest;newEdgeStyle={&quot;curved&quot;:0,&quot;rounded&quot;:0};" vertex="1" parent="1">
                    <mxGeometry x="670" y="4040" width="100" height="410" as="geometry"/>
                </mxCell>
                <mxCell id="81" value="" style="html=1;points=[[0,0,0,0,5],[0,1,0,0,-5],[1,0,0,0,5],[1,1,0,0,-5]];perimeter=orthogonalPerimeter;outlineConnect=0;targetShapes=umlLifeline;portConstraint=eastwest;newEdgeStyle={&quot;curved&quot;:0,&quot;rounded&quot;:0};" vertex="1" parent="79">
                    <mxGeometry x="45" y="80" width="10" height="80" as="geometry"/>
                </mxCell>
                <mxCell id="93" value="" style="shape=umlDestroy;whiteSpace=wrap;html=1;strokeWidth=3;targetShapes=umlLifeline;" vertex="1" parent="79">
                    <mxGeometry x="35" y="380" width="30" height="30" as="geometry"/>
                </mxCell>
                <mxCell id="80" value="New" style="html=1;verticalAlign=bottom;endArrow=block;curved=0;rounded=0;" edge="1" parent="1">
                    <mxGeometry width="80" relative="1" as="geometry">
                        <mxPoint x="119.73076923076928" y="4060" as="sourcePoint"/>
                        <mxPoint x="670" y="4060" as="targetPoint"/>
                    </mxGeometry>
                </mxCell>
                <mxCell id="82" value="Add&lt;div&gt;(Key, Instance)&lt;/div&gt;" style="html=1;verticalAlign=bottom;endArrow=block;curved=0;rounded=0;" edge="1" parent="1">
                    <mxGeometry width="80" relative="1" as="geometry">
                        <mxPoint x="119.73076923076928" y="4120" as="sourcePoint"/>
                        <mxPoint x="719.4999999999998" y="4120" as="targetPoint"/>
                    </mxGeometry>
                </mxCell>
                <mxCell id="83" value="EventInvoker" style="shape=umlLifeline;perimeter=lifelinePerimeter;whiteSpace=wrap;html=1;container=1;dropTarget=0;collapsible=0;recursiveResize=0;outlineConnect=0;portConstraint=eastwest;newEdgeStyle={&quot;curved&quot;:0,&quot;rounded&quot;:0};" vertex="1" parent="1">
                    <mxGeometry x="870" y="4200" width="100" height="1370" as="geometry"/>
                </mxCell>
                <mxCell id="85" value="" style="html=1;points=[[0,0,0,0,5],[0,1,0,0,-5],[1,0,0,0,5],[1,1,0,0,-5]];perimeter=orthogonalPerimeter;outlineConnect=0;targetShapes=umlLifeline;portConstraint=eastwest;newEdgeStyle={&quot;curved&quot;:0,&quot;rounded&quot;:0};" vertex="1" parent="83">
                    <mxGeometry x="45" y="80" width="10" height="80" as="geometry"/>
                </mxCell>
                <mxCell id="87" value="" style="html=1;points=[[0,0,0,0,5],[0,1,0,0,-5],[1,0,0,0,5],[1,1,0,0,-5]];perimeter=orthogonalPerimeter;outlineConnect=0;targetShapes=umlLifeline;portConstraint=eastwest;newEdgeStyle={&quot;curved&quot;:0,&quot;rounded&quot;:0};" vertex="1" parent="83">
                    <mxGeometry x="45" y="200" width="10" height="80" as="geometry"/>
                </mxCell>
                <mxCell id="155" value="" style="shape=umlDestroy;whiteSpace=wrap;html=1;strokeWidth=3;targetShapes=umlLifeline;" vertex="1" parent="83">
                    <mxGeometry x="35" y="1340" width="30" height="30" as="geometry"/>
                </mxCell>
                <mxCell id="84" value="New" style="html=1;verticalAlign=bottom;endArrow=block;curved=0;rounded=0;" edge="1" parent="1">
                    <mxGeometry width="80" relative="1" as="geometry">
                        <mxPoint x="119.73076923076928" y="4220" as="sourcePoint"/>
                        <mxPoint x="870" y="4220" as="targetPoint"/>
                    </mxGeometry>
                </mxCell>
                <mxCell id="86" value="SetInstTable&lt;div&gt;(EventInstTable table)&lt;/div&gt;" style="html=1;verticalAlign=bottom;endArrow=block;curved=0;rounded=0;" edge="1" parent="1">
                    <mxGeometry width="80" relative="1" as="geometry">
                        <mxPoint x="119.16666666666674" y="4280" as="sourcePoint"/>
                        <mxPoint x="919.5" y="4280" as="targetPoint"/>
                    </mxGeometry>
                </mxCell>
                <mxCell id="89" value="SetFuncTable&lt;div&gt;(EventFuncTable table)&lt;/div&gt;" style="html=1;verticalAlign=bottom;endArrow=block;curved=0;rounded=0;" edge="1" parent="1">
                    <mxGeometry width="80" relative="1" as="geometry">
                        <mxPoint x="119.38888888888891" y="4400" as="sourcePoint"/>
                        <mxPoint x="919.5000000000005" y="4400" as="targetPoint"/>
                    </mxGeometry>
                </mxCell>
                <mxCell id="90" value="move" style="html=1;verticalAlign=bottom;endArrow=open;dashed=1;endSize=8;curved=0;rounded=0;" edge="1" parent="1">
                    <mxGeometry relative="1" as="geometry">
                        <mxPoint x="519.3888888888891" y="4320" as="sourcePoint"/>
                        <mxPoint x="919.5000000000005" y="4320" as="targetPoint"/>
                    </mxGeometry>
                </mxCell>
                <mxCell id="92" value="move" style="html=1;verticalAlign=bottom;endArrow=open;dashed=1;endSize=8;curved=0;rounded=0;" edge="1" parent="1">
                    <mxGeometry relative="1" as="geometry">
                        <mxPoint x="719.730769230769" y="4440" as="sourcePoint"/>
                        <mxPoint x="919.5" y="4440" as="targetPoint"/>
                    </mxGeometry>
                </mxCell>
                <mxCell id="96" value="GetContainer&lt;div&gt;(int index)&lt;/div&gt;" style="html=1;verticalAlign=bottom;endArrow=block;curved=0;rounded=0;" edge="1" parent="1">
                    <mxGeometry width="80" relative="1" as="geometry">
                        <mxPoint x="117.16666666666697" y="4520" as="sourcePoint"/>
                        <mxPoint x="319.4999999999991" y="4520" as="targetPoint"/>
                    </mxGeometry>
                </mxCell>
                <mxCell id="97" value="IContainer&amp;amp;" style="html=1;verticalAlign=bottom;endArrow=open;dashed=1;endSize=8;curved=0;rounded=0;" edge="1" parent="1">
                    <mxGeometry relative="1" as="geometry">
                        <mxPoint x="314.9999999999991" y="4600" as="sourcePoint"/>
                        <mxPoint x="118.5" y="4600" as="targetPoint"/>
                    </mxGeometry>
                </mxCell>
                <mxCell id="98" value="WindowContextContainer&lt;div&gt;module&lt;/div&gt;" style="shape=umlLifeline;perimeter=lifelinePerimeter;whiteSpace=wrap;html=1;container=1;dropTarget=0;collapsible=0;recursiveResize=0;outlineConnect=0;portConstraint=eastwest;newEdgeStyle={&quot;curved&quot;:0,&quot;rounded&quot;:0};" vertex="1" parent="1">
                    <mxGeometry x="440" y="4520" width="157.5" height="655" as="geometry"/>
                </mxCell>
                <mxCell id="100" value="" style="html=1;points=[[0,0,0,0,5],[0,1,0,0,-5],[1,0,0,0,5],[1,1,0,0,-5]];perimeter=orthogonalPerimeter;outlineConnect=0;targetShapes=umlLifeline;portConstraint=eastwest;newEdgeStyle={&quot;curved&quot;:0,&quot;rounded&quot;:0};" vertex="1" parent="98">
                    <mxGeometry x="73.75" y="120" width="10" height="80" as="geometry"/>
                </mxCell>
                <mxCell id="113" value="" style="shape=umlDestroy;whiteSpace=wrap;html=1;strokeWidth=3;targetShapes=umlLifeline;" vertex="1" parent="98">
                    <mxGeometry x="63.75" y="620" width="30" height="30" as="geometry"/>
                </mxCell>
                <mxCell id="99" value="Ref" style="html=1;verticalAlign=bottom;endArrow=block;curved=0;rounded=0;" edge="1" parent="1">
                    <mxGeometry width="80" relative="1" as="geometry">
                        <mxPoint x="319.9594594594596" y="4540" as="sourcePoint"/>
                        <mxPoint x="440" y="4540" as="targetPoint"/>
                    </mxGeometry>
                </mxCell>
                <mxCell id="101" value="Get&lt;div&gt;(int index)&lt;/div&gt;" style="html=1;verticalAlign=bottom;endArrow=block;curved=0;rounded=0;" edge="1" parent="1">
                    <mxGeometry width="80" relative="1" as="geometry">
                        <mxPoint x="119.94444444444434" y="4640" as="sourcePoint"/>
                        <mxPoint x="519.5" y="4640" as="targetPoint"/>
                    </mxGeometry>
                </mxCell>
                <mxCell id="102" value="IWindow&amp;amp;" style="html=1;verticalAlign=bottom;endArrow=open;dashed=1;endSize=8;curved=0;rounded=0;" edge="1" parent="1">
                    <mxGeometry relative="1" as="geometry">
                        <mxPoint x="519.5" y="4720" as="sourcePoint"/>
                        <mxPoint x="119.94444444444434" y="4720" as="targetPoint"/>
                    </mxGeometry>
                </mxCell>
                <mxCell id="103" value="WindowContext&lt;div&gt;module&lt;/div&gt;" style="shape=umlLifeline;perimeter=lifelinePerimeter;whiteSpace=wrap;html=1;container=1;dropTarget=0;collapsible=0;recursiveResize=0;outlineConnect=0;portConstraint=eastwest;newEdgeStyle={&quot;curved&quot;:0,&quot;rounded&quot;:0};" vertex="1" parent="1">
                    <mxGeometry x="670" y="4640" width="100" height="535" as="geometry"/>
                </mxCell>
                <mxCell id="105" value="" style="html=1;points=[[0,0,0,0,5],[0,1,0,0,-5],[1,0,0,0,5],[1,1,0,0,-5]];perimeter=orthogonalPerimeter;outlineConnect=0;targetShapes=umlLifeline;portConstraint=eastwest;newEdgeStyle={&quot;curved&quot;:0,&quot;rounded&quot;:0};" vertex="1" parent="103">
                    <mxGeometry x="45" y="120" width="10" height="80" as="geometry"/>
                </mxCell>
                <mxCell id="114" value="" style="shape=umlDestroy;whiteSpace=wrap;html=1;strokeWidth=3;targetShapes=umlLifeline;" vertex="1" parent="103">
                    <mxGeometry x="35" y="505" width="30" height="30" as="geometry"/>
                </mxCell>
                <mxCell id="104" value="Ref" style="html=1;verticalAlign=bottom;endArrow=block;curved=0;rounded=0;" edge="1" parent="1">
                    <mxGeometry width="80" relative="1" as="geometry">
                        <mxPoint x="519.9444444444446" y="4660" as="sourcePoint"/>
                        <mxPoint x="670" y="4660" as="targetPoint"/>
                    </mxGeometry>
                </mxCell>
                <mxCell id="106" value="GetHwnd()" style="html=1;verticalAlign=bottom;endArrow=block;curved=0;rounded=0;" edge="1" parent="1">
                    <mxGeometry width="80" relative="1" as="geometry">
                        <mxPoint x="119.54761904761904" y="4760" as="sourcePoint"/>
                        <mxPoint x="719.5" y="4760" as="targetPoint"/>
                    </mxGeometry>
                </mxCell>
                <mxCell id="107" value="HWND" style="html=1;verticalAlign=bottom;endArrow=open;dashed=1;endSize=8;curved=0;rounded=0;" edge="1" parent="1">
                    <mxGeometry relative="1" as="geometry">
                        <mxPoint x="719.5" y="4840" as="sourcePoint"/>
                        <mxPoint x="119.83333333333326" y="4840" as="targetPoint"/>
                    </mxGeometry>
                </mxCell>
                <mxCell id="108" value="WindowsAPI&lt;div&gt;api&lt;/div&gt;" style="shape=umlLifeline;perimeter=lifelinePerimeter;whiteSpace=wrap;html=1;container=1;dropTarget=0;collapsible=0;recursiveResize=0;outlineConnect=0;portConstraint=eastwest;newEdgeStyle={&quot;curved&quot;:0,&quot;rounded&quot;:0};" vertex="1" parent="1">
                    <mxGeometry x="1070" y="4880" width="100" height="690" as="geometry"/>
                </mxCell>
                <mxCell id="109" value="" style="html=1;points=[[0,0,0,0,5],[0,1,0,0,-5],[1,0,0,0,5],[1,1,0,0,-5]];perimeter=orthogonalPerimeter;outlineConnect=0;targetShapes=umlLifeline;portConstraint=eastwest;newEdgeStyle={&quot;curved&quot;:0,&quot;rounded&quot;:0};" vertex="1" parent="108">
                    <mxGeometry x="45" y="80" width="10" height="80" as="geometry"/>
                </mxCell>
                <mxCell id="111" value="" style="html=1;points=[[0,0,0,0,5],[0,1,0,0,-5],[1,0,0,0,5],[1,1,0,0,-5]];perimeter=orthogonalPerimeter;outlineConnect=0;targetShapes=umlLifeline;portConstraint=eastwest;newEdgeStyle={&quot;curved&quot;:0,&quot;rounded&quot;:0};" vertex="1" parent="108">
                    <mxGeometry x="45" y="200" width="10" height="80" as="geometry"/>
                </mxCell>
                <mxCell id="147" value="" style="html=1;points=[[0,0,0,0,5],[0,1,0,0,-5],[1,0,0,0,5],[1,1,0,0,-5]];perimeter=orthogonalPerimeter;outlineConnect=0;targetShapes=umlLifeline;portConstraint=eastwest;newEdgeStyle={&quot;curved&quot;:0,&quot;rounded&quot;:0};" vertex="1" parent="108">
                    <mxGeometry x="45" y="360" width="10" height="80" as="geometry"/>
                </mxCell>
                <mxCell id="148" value="" style="html=1;points=[[0,0,0,0,5],[0,1,0,0,-5],[1,0,0,0,5],[1,1,0,0,-5]];perimeter=orthogonalPerimeter;outlineConnect=0;targetShapes=umlLifeline;portConstraint=eastwest;newEdgeStyle={&quot;curved&quot;:0,&quot;rounded&quot;:0};" vertex="1" parent="108">
                    <mxGeometry x="45" y="480" width="10" height="80" as="geometry"/>
                </mxCell>
                <mxCell id="156" value="" style="shape=umlDestroy;whiteSpace=wrap;html=1;strokeWidth=3;targetShapes=umlLifeline;" vertex="1" parent="108">
                    <mxGeometry x="35" y="660" width="30" height="30" as="geometry"/>
                </mxCell>
                <mxCell id="110" value="ShowWindow" style="html=1;verticalAlign=bottom;endArrow=block;curved=0;rounded=0;" edge="1" parent="1" target="108">
                    <mxGeometry width="80" relative="1" as="geometry">
                        <mxPoint x="119.32352941176464" y="4960" as="sourcePoint"/>
                        <mxPoint x="919.4999999999995" y="4960" as="targetPoint"/>
                    </mxGeometry>
                </mxCell>
                <mxCell id="112" value="UpdateWindow" style="html=1;verticalAlign=bottom;endArrow=block;curved=0;rounded=0;" edge="1" parent="1" target="108">
                    <mxGeometry width="80" relative="1" as="geometry">
                        <mxPoint x="119.5" y="5080" as="sourcePoint"/>
                        <mxPoint x="919.5" y="5080" as="targetPoint"/>
                    </mxGeometry>
                </mxCell>
                <mxCell id="115" value="ImageDataContainer&lt;div&gt;module&lt;/div&gt;" style="shape=umlLifeline;perimeter=lifelinePerimeter;whiteSpace=wrap;html=1;container=1;dropTarget=0;collapsible=0;recursiveResize=0;outlineConnect=0;portConstraint=eastwest;newEdgeStyle={&quot;curved&quot;:0,&quot;rounded&quot;:0};" vertex="1" parent="1">
                    <mxGeometry x="451.25" y="2600" width="132.5" height="250" as="geometry"/>
                </mxCell>
                <mxCell id="117" value="" style="html=1;points=[[0,0,0,0,5],[0,1,0,0,-5],[1,0,0,0,5],[1,1,0,0,-5]];perimeter=orthogonalPerimeter;outlineConnect=0;targetShapes=umlLifeline;portConstraint=eastwest;newEdgeStyle={&quot;curved&quot;:0,&quot;rounded&quot;:0};" vertex="1" parent="115">
                    <mxGeometry x="61.25" y="80" width="10" height="80" as="geometry"/>
                </mxCell>
                <mxCell id="122" value="" style="shape=umlDestroy;whiteSpace=wrap;html=1;strokeWidth=3;targetShapes=umlLifeline;" vertex="1" parent="115">
                    <mxGeometry x="51.25" y="220" width="30" height="30" as="geometry"/>
                </mxCell>
                <mxCell id="116" value="New" style="html=1;verticalAlign=bottom;endArrow=block;curved=0;rounded=0;" edge="1" parent="1">
                    <mxGeometry width="80" relative="1" as="geometry">
                        <mxPoint x="117.31034482758605" y="2620" as="sourcePoint"/>
                        <mxPoint x="450" y="2620" as="targetPoint"/>
                    </mxGeometry>
                </mxCell>
                <mxCell id="118" value="Create&lt;div&gt;(uint size)&lt;/div&gt;" style="html=1;verticalAlign=bottom;endArrow=block;curved=0;rounded=0;" edge="1" parent="1">
                    <mxGeometry width="80" relative="1" as="geometry">
                        <mxPoint x="117.31034482758605" y="2680" as="sourcePoint"/>
                        <mxPoint x="517" y="2680" as="targetPoint"/>
                    </mxGeometry>
                </mxCell>
                <mxCell id="120" value="Set&lt;div&gt;(int index, IContainer cont)&amp;nbsp;&lt;/div&gt;" style="html=1;verticalAlign=bottom;endArrow=block;curved=0;rounded=0;" edge="1" parent="1">
                    <mxGeometry width="80" relative="1" as="geometry">
                        <mxPoint x="114.66666666666697" y="2800" as="sourcePoint"/>
                        <mxPoint x="316.9999999999991" y="2800" as="targetPoint"/>
                    </mxGeometry>
                </mxCell>
                <mxCell id="121" value="move" style="html=1;verticalAlign=bottom;endArrow=open;dashed=1;endSize=8;curved=0;rounded=0;" edge="1" parent="1">
                    <mxGeometry relative="1" as="geometry">
                        <mxPoint x="517" y="2840" as="sourcePoint"/>
                        <mxPoint x="317.35483870967755" y="2840" as="targetPoint"/>
                    </mxGeometry>
                </mxCell>
                <mxCell id="123" value="" style="html=1;points=[[0,0,0,0,5],[0,1,0,0,-5],[1,0,0,0,5],[1,1,0,0,-5]];perimeter=orthogonalPerimeter;outlineConnect=0;targetShapes=umlLifeline;portConstraint=eastwest;newEdgeStyle={&quot;curved&quot;:0,&quot;rounded&quot;:0};" vertex="1" parent="1">
                    <mxGeometry x="313.5" y="3120" width="10" height="80" as="geometry"/>
                </mxCell>
                <mxCell id="124" value="SoundDataContainer&lt;div&gt;module&lt;/div&gt;" style="shape=umlLifeline;perimeter=lifelinePerimeter;whiteSpace=wrap;html=1;container=1;dropTarget=0;collapsible=0;recursiveResize=0;outlineConnect=0;portConstraint=eastwest;newEdgeStyle={&quot;curved&quot;:0,&quot;rounded&quot;:0};" vertex="1" parent="1">
                    <mxGeometry x="451.25" y="2920" width="132.5" height="250" as="geometry"/>
                </mxCell>
                <mxCell id="125" value="" style="html=1;points=[[0,0,0,0,5],[0,1,0,0,-5],[1,0,0,0,5],[1,1,0,0,-5]];perimeter=orthogonalPerimeter;outlineConnect=0;targetShapes=umlLifeline;portConstraint=eastwest;newEdgeStyle={&quot;curved&quot;:0,&quot;rounded&quot;:0};" vertex="1" parent="124">
                    <mxGeometry x="61.25" y="80" width="10" height="80" as="geometry"/>
                </mxCell>
                <mxCell id="126" value="" style="shape=umlDestroy;whiteSpace=wrap;html=1;strokeWidth=3;targetShapes=umlLifeline;" vertex="1" parent="124">
                    <mxGeometry x="51.25" y="220" width="30" height="30" as="geometry"/>
                </mxCell>
                <mxCell id="127" value="New" style="html=1;verticalAlign=bottom;endArrow=block;curved=0;rounded=0;" edge="1" parent="1">
                    <mxGeometry width="80" relative="1" as="geometry">
                        <mxPoint x="117.31034482758605" y="2940" as="sourcePoint"/>
                        <mxPoint x="450" y="2940" as="targetPoint"/>
                    </mxGeometry>
                </mxCell>
                <mxCell id="128" value="Create&lt;div&gt;(uint size)&lt;/div&gt;" style="html=1;verticalAlign=bottom;endArrow=block;curved=0;rounded=0;" edge="1" parent="1">
                    <mxGeometry width="80" relative="1" as="geometry">
                        <mxPoint x="117.31034482758605" y="3000" as="sourcePoint"/>
                        <mxPoint x="517" y="3000" as="targetPoint"/>
                    </mxGeometry>
                </mxCell>
                <mxCell id="129" value="Set&lt;div&gt;(int index, IContainer cont)&amp;nbsp;&lt;/div&gt;" style="html=1;verticalAlign=bottom;endArrow=block;curved=0;rounded=0;" edge="1" parent="1">
                    <mxGeometry width="80" relative="1" as="geometry">
                        <mxPoint x="114.66666666666697" y="3120" as="sourcePoint"/>
                        <mxPoint x="316.9999999999991" y="3120" as="targetPoint"/>
                    </mxGeometry>
                </mxCell>
                <mxCell id="130" value="move" style="html=1;verticalAlign=bottom;endArrow=open;dashed=1;endSize=8;curved=0;rounded=0;" edge="1" parent="1">
                    <mxGeometry relative="1" as="geometry">
                        <mxPoint x="517" y="3160" as="sourcePoint"/>
                        <mxPoint x="317.35483870967755" y="3160" as="targetPoint"/>
                    </mxGeometry>
                </mxCell>
                <mxCell id="131" value="" style="html=1;points=[[0,0,0,0,5],[0,1,0,0,-5],[1,0,0,0,5],[1,1,0,0,-5]];perimeter=orthogonalPerimeter;outlineConnect=0;targetShapes=umlLifeline;portConstraint=eastwest;newEdgeStyle={&quot;curved&quot;:0,&quot;rounded&quot;:0};" vertex="1" parent="1">
                    <mxGeometry x="313.5" y="3440" width="10" height="80" as="geometry"/>
                </mxCell>
                <mxCell id="132" value="ModelDataContainer&lt;div&gt;module&lt;/div&gt;" style="shape=umlLifeline;perimeter=lifelinePerimeter;whiteSpace=wrap;html=1;container=1;dropTarget=0;collapsible=0;recursiveResize=0;outlineConnect=0;portConstraint=eastwest;newEdgeStyle={&quot;curved&quot;:0,&quot;rounded&quot;:0};" vertex="1" parent="1">
                    <mxGeometry x="451.25" y="3240" width="132.5" height="250" as="geometry"/>
                </mxCell>
                <mxCell id="133" value="" style="html=1;points=[[0,0,0,0,5],[0,1,0,0,-5],[1,0,0,0,5],[1,1,0,0,-5]];perimeter=orthogonalPerimeter;outlineConnect=0;targetShapes=umlLifeline;portConstraint=eastwest;newEdgeStyle={&quot;curved&quot;:0,&quot;rounded&quot;:0};" vertex="1" parent="132">
                    <mxGeometry x="61.25" y="80" width="10" height="80" as="geometry"/>
                </mxCell>
                <mxCell id="134" value="" style="shape=umlDestroy;whiteSpace=wrap;html=1;strokeWidth=3;targetShapes=umlLifeline;" vertex="1" parent="132">
                    <mxGeometry x="51.25" y="220" width="30" height="30" as="geometry"/>
                </mxCell>
                <mxCell id="135" value="New" style="html=1;verticalAlign=bottom;endArrow=block;curved=0;rounded=0;" edge="1" parent="1">
                    <mxGeometry width="80" relative="1" as="geometry">
                        <mxPoint x="117.31034482758605" y="3260" as="sourcePoint"/>
                        <mxPoint x="450" y="3260" as="targetPoint"/>
                    </mxGeometry>
                </mxCell>
                <mxCell id="136" value="Create&lt;div&gt;(uint size)&lt;/div&gt;" style="html=1;verticalAlign=bottom;endArrow=block;curved=0;rounded=0;" edge="1" parent="1">
                    <mxGeometry width="80" relative="1" as="geometry">
                        <mxPoint x="117.31034482758605" y="3320" as="sourcePoint"/>
                        <mxPoint x="517" y="3320" as="targetPoint"/>
                    </mxGeometry>
                </mxCell>
                <mxCell id="137" value="Set&lt;div&gt;(int index, IContainer cont)&amp;nbsp;&lt;/div&gt;" style="html=1;verticalAlign=bottom;endArrow=block;curved=0;rounded=0;" edge="1" parent="1">
                    <mxGeometry width="80" relative="1" as="geometry">
                        <mxPoint x="114.66666666666697" y="3440" as="sourcePoint"/>
                        <mxPoint x="316.9999999999991" y="3440" as="targetPoint"/>
                    </mxGeometry>
                </mxCell>
                <mxCell id="138" value="move" style="html=1;verticalAlign=bottom;endArrow=open;dashed=1;endSize=8;curved=0;rounded=0;" edge="1" parent="1">
                    <mxGeometry relative="1" as="geometry">
                        <mxPoint x="517" y="3480" as="sourcePoint"/>
                        <mxPoint x="317.35483870967755" y="3480" as="targetPoint"/>
                    </mxGeometry>
                </mxCell>
                <mxCell id="139" value="" style="html=1;points=[[0,0,0,0,5],[0,1,0,0,-5],[1,0,0,0,5],[1,1,0,0,-5]];perimeter=orthogonalPerimeter;outlineConnect=0;targetShapes=umlLifeline;portConstraint=eastwest;newEdgeStyle={&quot;curved&quot;:0,&quot;rounded&quot;:0};" vertex="1" parent="1">
                    <mxGeometry x="313.5" y="3760" width="10" height="80" as="geometry"/>
                </mxCell>
                <mxCell id="140" value="JsonDataContainer&lt;div&gt;module&lt;/div&gt;" style="shape=umlLifeline;perimeter=lifelinePerimeter;whiteSpace=wrap;html=1;container=1;dropTarget=0;collapsible=0;recursiveResize=0;outlineConnect=0;portConstraint=eastwest;newEdgeStyle={&quot;curved&quot;:0,&quot;rounded&quot;:0};" vertex="1" parent="1">
                    <mxGeometry x="462.19" y="3560" width="115.62" height="250" as="geometry"/>
                </mxCell>
                <mxCell id="141" value="" style="html=1;points=[[0,0,0,0,5],[0,1,0,0,-5],[1,0,0,0,5],[1,1,0,0,-5]];perimeter=orthogonalPerimeter;outlineConnect=0;targetShapes=umlLifeline;portConstraint=eastwest;newEdgeStyle={&quot;curved&quot;:0,&quot;rounded&quot;:0};" vertex="1" parent="140">
                    <mxGeometry x="52.81" y="80" width="10" height="80" as="geometry"/>
                </mxCell>
                <mxCell id="142" value="" style="shape=umlDestroy;whiteSpace=wrap;html=1;strokeWidth=3;targetShapes=umlLifeline;" vertex="1" parent="140">
                    <mxGeometry x="42.81" y="220" width="30" height="30" as="geometry"/>
                </mxCell>
                <mxCell id="143" value="New" style="html=1;verticalAlign=bottom;endArrow=block;curved=0;rounded=0;" edge="1" parent="1">
                    <mxGeometry width="80" relative="1" as="geometry">
                        <mxPoint x="117.31034482758605" y="3580" as="sourcePoint"/>
                        <mxPoint x="460" y="3580" as="targetPoint"/>
                    </mxGeometry>
                </mxCell>
                <mxCell id="144" value="Create&lt;div&gt;(uint size)&lt;/div&gt;" style="html=1;verticalAlign=bottom;endArrow=block;curved=0;rounded=0;" edge="1" parent="1">
                    <mxGeometry width="80" relative="1" as="geometry">
                        <mxPoint x="117.31034482758605" y="3640" as="sourcePoint"/>
                        <mxPoint x="517" y="3640" as="targetPoint"/>
                    </mxGeometry>
                </mxCell>
                <mxCell id="145" value="Set&lt;div&gt;(int index, IContainer cont)&amp;nbsp;&lt;/div&gt;" style="html=1;verticalAlign=bottom;endArrow=block;curved=0;rounded=0;" edge="1" parent="1">
                    <mxGeometry width="80" relative="1" as="geometry">
                        <mxPoint x="114.66666666666697" y="3760" as="sourcePoint"/>
                        <mxPoint x="316.9999999999991" y="3760" as="targetPoint"/>
                    </mxGeometry>
                </mxCell>
                <mxCell id="146" value="move" style="html=1;verticalAlign=bottom;endArrow=open;dashed=1;endSize=8;curved=0;rounded=0;" edge="1" parent="1">
                    <mxGeometry relative="1" as="geometry">
                        <mxPoint x="517" y="3800" as="sourcePoint"/>
                        <mxPoint x="317.35483870967755" y="3800" as="targetPoint"/>
                    </mxGeometry>
                </mxCell>
                <mxCell id="149" value="TranslateMessage" style="html=1;verticalAlign=bottom;endArrow=block;curved=0;rounded=0;" edge="1" parent="1" target="108">
                    <mxGeometry width="80" relative="1" as="geometry">
                        <mxPoint x="118.75" y="5240" as="sourcePoint"/>
                        <mxPoint x="918.75" y="5240" as="targetPoint"/>
                        <mxPoint as="offset"/>
                    </mxGeometry>
                </mxCell>
                <mxCell id="151" value="DispatchMessage" style="html=1;verticalAlign=bottom;endArrow=block;curved=0;rounded=0;" edge="1" parent="1" target="108">
                    <mxGeometry width="80" relative="1" as="geometry">
                        <mxPoint x="120" y="5360" as="sourcePoint"/>
                        <mxPoint x="920" y="5360" as="targetPoint"/>
                        <mxPoint as="offset"/>
                    </mxGeometry>
                </mxCell>
                <mxCell id="152" value="while&lt;div&gt;msg != WM_QUIT&lt;/div&gt;" style="shape=umlFrame;whiteSpace=wrap;html=1;pointerEvents=0;width=130;height=50;" vertex="1" parent="1">
                    <mxGeometry x="-40" y="5200" width="1200" height="280" as="geometry"/>
                </mxCell>
            </root>
        </mxGraphModel>
    </diagram>
</mxfile>